<svg width="16" height="12" viewBox="0 0 16 12" fill="none" xmlns="http://www.w3.org/2000/svg">
<path d="M11.2969 2.37961H1.58403L2.94431 1.01367C3.127 0.830234 3.12638 0.533421 2.94294 0.350733C2.75947 0.168015 2.46269 0.168671 2.28003 0.352108L0.136625 2.50445C0.0438438 2.59764 -0.00140625 2.72005 0.00034375 2.84195C0.00028125 2.84411 0 2.8462 0 2.84836C0 3.01089 0.0827813 3.15401 0.208406 3.23811L2.28003 5.31836C2.46275 5.5018 2.7595 5.50239 2.94294 5.31973C3.12638 5.13705 3.127 4.84023 2.94431 4.6568L1.61019 3.31711H11.2969C13.3733 3.31711 15.0625 5.00636 15.0625 7.08273C15.0625 9.15911 13.3733 10.8484 11.2969 10.8484H4.46875C4.20988 10.8484 4 11.0582 4 11.3171C4 11.576 4.20988 11.7859 4.46875 11.7859H11.2969C13.8902 11.7859 16 9.67605 16 7.08273C16 4.48942 13.8902 2.37961 11.2969 2.37961Z" fill="white"/>
</svg>
