<svg width="37" height="40" viewBox="0 0 37 40" fill="none" xmlns="http://www.w3.org/2000/svg">
<path d="M29.048 19.6448H31.8382C32.469 19.6448 32.9822 19.1316 32.9822 18.5009V15.7107C32.9822 15.0799 32.469 14.5667 31.8382 14.5667H29.048C28.4173 14.5667 27.9041 15.0799 27.9041 15.7107V18.5009C27.9041 19.1316 28.4173 19.6448 29.048 19.6448ZM29.0759 15.7386H31.8103V18.473H29.0759V15.7386ZM29.048 27.0667H31.8382C32.469 27.0667 32.9822 26.5535 32.9822 25.9227V23.1326C32.9822 22.5018 32.469 21.9886 31.8382 21.9886H29.048C28.4173 21.9886 27.9041 22.5018 27.9041 23.1326V25.9227C27.9041 26.5535 28.4173 27.0667 29.048 27.0667ZM29.0759 23.1605H31.8103V25.8948H29.0759V23.1605ZM21.0859 19.6448H23.876C24.5068 19.6448 25.02 19.1316 25.02 18.5009V15.7107C25.02 15.0799 24.5068 14.5667 23.876 14.5667H21.0859C20.4551 14.5667 19.9419 15.0799 19.9419 15.7107V18.5009C19.9419 19.1316 20.4551 19.6448 21.0859 19.6448ZM21.1138 15.7386H23.8481V18.473H21.1138V15.7386ZM7.95164 29.0625H5.16148C4.5307 29.0625 4.0175 29.5757 4.0175 30.2065V32.9966C4.0175 33.6274 4.5307 34.1406 5.16148 34.1406H7.95164C8.58242 34.1406 9.09563 33.6274 9.09563 32.9966V30.2065C9.09563 29.5757 8.58242 29.0625 7.95164 29.0625ZM7.92375 32.9688H5.18937V30.2344H7.92375V32.9688ZM7.95164 14.5667H5.16148C4.5307 14.5667 4.0175 15.0799 4.0175 15.7107V18.5009C4.0175 19.1316 4.5307 19.6448 5.16148 19.6448H7.95164C8.58242 19.6448 9.09563 19.1316 9.09563 18.5009V15.7107C9.09563 15.0798 8.58242 14.5667 7.95164 14.5667ZM7.92375 18.473H5.18937V15.7386H7.92375V18.473ZM21.0859 26.8927H23.876C24.5068 26.8927 25.02 26.3795 25.02 25.7488V22.9586C25.02 22.3278 24.5068 21.8146 23.876 21.8146H21.0859C20.4551 21.8146 19.9419 22.3278 19.9419 22.9586V25.7488C19.9419 26.3795 20.4551 26.8927 21.0859 26.8927ZM21.1138 22.9865H23.8481V25.7209H21.1138V22.9865ZM33.5641 2.67766H31.059V1.7818C31.059 0.799297 30.2597 0 29.2772 0H29.0081C28.0257 0 27.2264 0.799297 27.2264 1.7818V2.67766H9.77328V1.7818C9.77328 0.799297 8.97398 0 7.99148 0H7.72242C6.73992 0 5.94062 0.799297 5.94062 1.7818V2.67766H3.43555C1.81797 2.67766 0.501953 3.99367 0.501953 5.61125V37.0703C0.501953 38.6858 1.81617 40 3.43164 40H33.5682C35.1837 40 36.4979 38.6858 36.4979 37.0703V5.61125C36.4978 3.99367 35.1818 2.67766 33.5641 2.67766ZM28.3983 1.7818C28.3983 1.44547 28.6719 1.17188 29.0082 1.17188H29.2773C29.6136 1.17188 29.8872 1.44547 29.8872 1.7818V2.67766H28.3983V1.7818ZM7.11258 1.7818C7.11258 1.44547 7.38617 1.17188 7.7225 1.17188H7.99156C8.32789 1.17188 8.60148 1.44547 8.60148 1.7818V2.67766H7.11266V1.7818H7.11258ZM35.3259 37.0703C35.3259 38.0396 34.5374 38.8281 33.5681 38.8281H3.43156C2.46227 38.8281 1.67375 38.0396 1.67375 37.0703V37.0666C2.16469 37.4366 2.77492 37.6562 3.43555 37.6562H27.192C27.9756 37.6562 28.7123 37.3511 29.2664 36.797L35.3259 30.7374V37.0703ZM28.6685 35.7376C28.7145 35.548 28.7395 35.3502 28.7395 35.1467V31.2355C28.7395 30.498 29.3395 29.8979 30.0771 29.8979H33.9883C34.1918 29.8979 34.3895 29.8729 34.5791 29.827L28.6685 35.7376ZM35.3259 11.0511H10.3592C10.0356 11.0511 9.77328 11.3134 9.77328 11.637C9.77328 11.9606 10.0356 12.223 10.3592 12.223H35.3259V27.3884C35.3259 28.126 34.7259 28.7261 33.9883 28.7261H30.0771C28.6934 28.7261 27.5676 29.8519 27.5676 31.2355V35.1468C27.5676 35.8844 26.9675 36.4845 26.23 36.4845H3.43555C2.46414 36.4845 1.67383 35.6941 1.67383 34.7227V12.223H8.01547C8.33906 12.223 8.60141 11.9606 8.60141 11.637C8.60141 11.3134 8.33906 11.0511 8.01547 11.0511H1.67375V5.61125C1.67375 4.63984 2.46406 3.84953 3.43547 3.84953H5.94062V5.57234C5.94062 6.55484 6.73992 7.35414 7.72242 7.35414C8.04602 7.35414 8.30836 7.0918 8.30836 6.7682C8.30836 6.44461 8.04602 6.18227 7.72242 6.18227C7.38609 6.18227 7.1125 5.90867 7.1125 5.57234V3.84953H27.2264V5.57234C27.2264 6.55484 28.0257 7.35414 29.0082 7.35414C29.3318 7.35414 29.5941 7.0918 29.5941 6.7682C29.5941 6.44461 29.3318 6.18227 29.0082 6.18227C28.6719 6.18227 28.3983 5.90867 28.3983 5.57234V3.84953H33.5642C34.5356 3.84953 35.3259 4.63984 35.3259 5.61125V11.0511ZM7.95164 21.8146H5.16148C4.5307 21.8146 4.0175 22.3278 4.0175 22.9586V25.7488C4.0175 26.3795 4.5307 26.8927 5.16148 26.8927H7.95164C8.58242 26.8927 9.09563 26.3795 9.09563 25.7488V22.9586C9.09563 22.3277 8.58242 21.8146 7.95164 21.8146ZM7.92375 25.7209H5.18937V22.9865H7.92375V25.7209ZM13.1237 19.6448H15.9138C16.5446 19.6448 17.0578 19.1316 17.0578 18.5009V15.7107C17.0578 15.0799 16.5446 14.5667 15.9138 14.5667H13.1237C12.4929 14.5667 11.9797 15.0799 11.9797 15.7107V18.5009C11.9797 19.1316 12.4929 19.6448 13.1237 19.6448ZM13.1516 15.7386H15.8859V18.473H13.1516V15.7386ZM21.113 32.9688C21.0985 32.658 20.842 32.4107 20.5277 32.4107C20.2041 32.4107 19.9418 32.673 19.9418 32.9966C19.9418 33.6274 20.455 34.1406 21.0858 34.1406H23.8759C24.5067 34.1406 25.0199 33.6274 25.0199 32.9966V30.2065C25.0199 29.5757 24.5067 29.0625 23.8759 29.0625H21.0858C20.455 29.0625 19.9418 29.5757 19.9418 30.2065V31.0112C19.9418 31.3348 20.2041 31.5971 20.5277 31.5971C20.8513 31.5971 21.1137 31.3348 21.1137 31.0112V30.2344H23.848V32.9688H21.113ZM13.1237 26.8927H15.9138C16.5446 26.8927 17.0578 26.3795 17.0578 25.7488V22.9586C17.0578 22.3278 16.5446 21.8146 15.9138 21.8146H13.1237C12.4929 21.8146 11.9797 22.3278 11.9797 22.9586V25.7488C11.9797 26.3795 12.4929 26.8927 13.1237 26.8927ZM13.1516 22.9865H15.8859V25.7209H13.1516V22.9865ZM13.1237 34.1406H15.9138C16.5446 34.1406 17.0578 33.6274 17.0578 32.9966V30.2065C17.0578 29.5757 16.5446 29.0625 15.9138 29.0625H13.1237C12.4929 29.0625 11.9797 29.5757 11.9797 30.2065V32.9966C11.9797 33.6274 12.4929 34.1406 13.1237 34.1406ZM13.1516 30.2344H15.8859V32.9688H13.1516V30.2344Z" fill="#B12020"/>
</svg>