<svg width="50" height="50" viewBox="0 0 50 50" fill="none" xmlns="http://www.w3.org/2000/svg">
    <path d="M25 0C16.2144 0 8.88672 7.07715 8.88672 16.1133C8.88672 19.551 9.91973 22.6164 11.9022 25.4889L23.7669 44.0025C24.3425 44.9025 25.6587 44.9008 26.2331 44.0025L38.1492 25.4259C40.0891 22.6836 41.1133 19.4636 41.1133 16.1133C41.1133 7.22842 33.8849 0 25 0ZM25 23.4375C20.9616 23.4375 17.6758 20.1517 17.6758 16.1133C17.6758 12.0749 20.9616 8.78906 25 8.78906C29.0384 8.78906 32.3242 12.0749 32.3242 16.1133C32.3242 20.1517 29.0384 23.4375 25 23.4375Z" fill="#B12020"/>
    <path d="M36.4516 33.6616L29.0755 45.1936C27.1662 48.1703 22.8231 48.1605 20.923 45.1964L13.535 33.6646C7.03457 35.1676 3.02734 37.9208 3.02734 41.2109C3.02734 46.9201 14.3484 50 25 50C35.6516 50 46.9727 46.9201 46.9727 41.2109C46.9727 37.9185 42.9599 35.1638 36.4516 33.6616Z" fill="#B12020"/>
    </svg>