<svg width="50" height="50" viewBox="0 0 50 50" fill="none" xmlns="http://www.w3.org/2000/svg">
    <path d="M8.92861 42.8571H21.4286C22.9079 42.8571 24.1072 41.6579 24.1072 40.1785V2.67852C24.1071 1.19922 22.9079 0 21.4286 0H8.92861C7.44922 0 6.25 1.19922 6.25 2.67861V40.1786C6.25 41.6579 7.44922 42.8571 8.92861 42.8571Z" fill="#B12020"/>
    <path d="M49.1071 13.3929H25.8929V40.1786C25.8929 42.6441 23.8941 44.6429 21.4286 44.6429H8.92861C6.46309 44.6429 4.46436 42.6441 4.46436 40.1786V13.3929H0.892871C0.399805 13.3929 0 13.7926 0 14.2857V49.1071C0 49.6003 0.399707 50 0.892871 50H49.1071C49.6002 50 50 49.6003 50 49.1071V14.2857C50 13.7926 49.6003 13.3929 49.1071 13.3929ZM33.0357 44.6429H30.3571C29.8641 44.6429 29.4643 44.2432 29.4643 43.75C29.4643 43.2569 29.864 42.8571 30.3571 42.8571H33.0357C33.5288 42.8571 33.9286 43.2568 33.9286 43.75C33.9286 44.2431 33.5288 44.6429 33.0357 44.6429ZM33.0357 40.1786H30.3571C29.8641 40.1786 29.4643 39.7789 29.4643 39.2857C29.4643 38.7927 29.864 38.3929 30.3571 38.3929H33.0357C33.5288 38.3929 33.9286 38.7926 33.9286 39.2857C33.9286 39.7788 33.5288 40.1786 33.0357 40.1786ZM33.0357 35.7143H30.3571C29.8641 35.7143 29.4643 35.3146 29.4643 34.8214C29.4643 34.3283 29.864 33.9285 30.3571 33.9285H33.0357C33.5288 33.9285 33.9286 34.3282 33.9286 34.8214C33.9286 35.3146 33.5288 35.7143 33.0357 35.7143ZM33.0357 31.25H30.3571C29.8641 31.25 29.4643 30.8503 29.4643 30.3571C29.4643 29.8641 29.864 29.4643 30.3571 29.4643H33.0357C33.5288 29.4643 33.9286 29.864 33.9286 30.3571C33.9286 30.8503 33.5288 31.25 33.0357 31.25ZM40.1786 44.6429H37.5C37.0069 44.6429 36.6071 44.2432 36.6071 43.75C36.6071 43.2569 37.0068 42.8571 37.5 42.8571H40.1786C40.6717 42.8571 41.0715 43.2568 41.0715 43.75C41.0714 44.2431 40.6717 44.6429 40.1786 44.6429ZM40.1786 40.1786H37.5C37.0069 40.1786 36.6071 39.7789 36.6071 39.2857C36.6071 38.7927 37.0068 38.3929 37.5 38.3929H40.1786C40.6717 38.3929 41.0715 38.7926 41.0715 39.2857C41.0714 39.7788 40.6717 40.1786 40.1786 40.1786ZM40.1786 35.7143H37.5C37.0069 35.7143 36.6071 35.3146 36.6071 34.8214C36.6071 34.3283 37.0068 33.9285 37.5 33.9285H40.1786C40.6717 33.9285 41.0715 34.3282 41.0715 34.8214C41.0714 35.3146 40.6717 35.7143 40.1786 35.7143ZM40.1786 31.25H37.5C37.0069 31.25 36.6071 30.8503 36.6071 30.3571C36.6071 29.8641 37.0068 29.4643 37.5 29.4643H40.1786C40.6717 29.4643 41.0715 29.864 41.0715 30.3571C41.0714 30.8503 40.6717 31.25 40.1786 31.25ZM47.3214 44.6429H44.6428C44.1497 44.6429 43.7499 44.2432 43.7499 43.75C43.7499 43.2569 44.1496 42.8571 44.6428 42.8571H47.3214C47.8145 42.8571 48.2143 43.2568 48.2143 43.75C48.2143 44.2431 47.8146 44.6429 47.3214 44.6429ZM47.3214 40.1786H44.6428C44.1497 40.1786 43.7499 39.7789 43.7499 39.2857C43.7499 38.7927 44.1496 38.3929 44.6428 38.3929H47.3214C47.8145 38.3929 48.2143 38.7926 48.2143 39.2857C48.2143 39.7788 47.8146 40.1786 47.3214 40.1786ZM47.3214 35.7143H44.6428C44.1497 35.7143 43.7499 35.3146 43.7499 34.8214C43.7499 34.3283 44.1496 33.9285 44.6428 33.9285H47.3214C47.8145 33.9285 48.2143 34.3282 48.2143 34.8214C48.2143 35.3146 47.8146 35.7143 47.3214 35.7143ZM47.3214 31.25H44.6428C44.1497 31.25 43.7499 30.8503 43.7499 30.3571C43.7499 29.8641 44.1496 29.4643 44.6428 29.4643H47.3214C47.8145 29.4643 48.2143 29.864 48.2143 30.3571C48.2143 30.8503 47.8146 31.25 47.3214 31.25ZM48.2143 25C48.2143 25.9862 47.4147 26.7857 46.4285 26.7857H31.25C30.2638 26.7857 29.4643 25.9862 29.4643 25V17.8571C29.4643 16.8709 30.2638 16.0714 31.25 16.0714H40.1786C40.6717 16.0714 41.0715 16.4711 41.0715 16.9643C41.0715 17.4574 40.6718 17.8571 40.1786 17.8571H31.25V25H46.4286V17.8571H44.6429C44.1498 17.8571 43.75 17.4574 43.75 16.9643C43.75 16.4711 44.1497 16.0714 44.6429 16.0714H46.4286C47.4148 16.0714 48.2144 16.8709 48.2144 17.8571V25H48.2143Z" fill="#B12020"/>
    </svg>
