<svg width="50" height="38" viewBox="0 0 50 38" fill="none" xmlns="http://www.w3.org/2000/svg">
    <path d="M49.1071 0.25H0.892871C0.399707 0.25 0 0.649707 0 1.14287V36.8571C0 37.3503 0.399707 37.75 0.892871 37.75H49.1071C49.6002 37.75 50 37.3503 50 36.8571V1.14287C50 0.649707 49.6003 0.25 49.1071 0.25ZM15.8313 22.2875L3.33125 35.6804C3.11582 35.9221 2.78633 36.0282 2.47031 35.9577C2.1543 35.8872 1.90117 35.6511 1.80889 35.3406C1.7166 35.0302 1.79971 34.6942 2.02588 34.4625L14.5259 21.0696C14.7413 20.8279 15.0708 20.7218 15.3868 20.7923C15.7028 20.8628 15.956 21.0989 16.0482 21.4094C16.1405 21.7198 16.0574 22.0558 15.8313 22.2875ZM47.9304 35.7241C47.5698 36.0603 47.0051 36.0407 46.6688 35.6804L34.1688 22.2875C33.9426 22.0558 33.8595 21.7198 33.9518 21.4094C34.044 21.0989 34.2971 20.8629 34.6132 20.7923C34.9292 20.7218 35.2587 20.8278 35.4741 21.0696L47.9741 34.4625C48.3103 34.823 48.2907 35.3878 47.9304 35.7241ZM47.8955 3.6125L27.2974 20.9151C26.6545 21.4568 25.8407 21.7538 25 21.7535C24.1593 21.7538 23.3456 21.4568 22.7026 20.9151L2.10449 3.6125C1.86016 3.40742 1.74375 3.0875 1.79922 2.77334C1.85469 2.45918 2.07354 2.19844 2.37334 2.08945C2.67314 1.98037 3.0084 2.03955 3.25273 2.24463L23.851 19.5482C24.5152 20.1067 25.4849 20.1067 26.1492 19.5482L46.7474 2.24463C47.1251 1.92754 47.6883 1.97676 48.0054 2.35449C48.3225 2.73223 48.2732 3.29541 47.8955 3.6125Z" fill="#B12020"/>
    </svg>