<svg width="10" height="10" viewBox="0 0 10 10" fill="none" xmlns="http://www.w3.org/2000/svg">
<g clip-path="url(#clip0)">
<path d="M9.64285 4.64288H3.87786C3.68418 3.88191 2.91029 3.42203 2.1493 3.61571C1.64464 3.74415 1.25058 4.13822 1.12213 4.64288H0.35715C0.159898 4.64288 0 4.80277 0 5.00003C0 5.19728 0.159898 5.35715 0.35715 5.35715H1.12215C1.31583 6.11812 2.08972 6.578 2.85071 6.38432C3.35537 6.25588 3.74943 5.86181 3.87788 5.35715H9.64285C9.8401 5.35715 10 5.19726 10 5C10 4.80275 9.8401 4.64288 9.64285 4.64288ZM2.50001 5.7143C2.10552 5.7143 1.78573 5.39451 1.78573 5.00003C1.78573 4.60554 2.10552 4.28575 2.50001 4.28575C2.89449 4.28575 3.21428 4.60554 3.21428 5.00003C3.21428 5.39451 2.89449 5.7143 2.50001 5.7143Z" fill="#4E4E50"/>
<path d="M9.64285 1.0711H8.52072C8.32705 0.310134 7.55315 -0.149743 6.79216 0.0439305C6.2875 0.172376 5.89344 0.56644 5.76499 1.0711H0.35715C0.159898 1.0711 0 1.231 0 1.42825C0 1.6255 0.159898 1.7854 0.35715 1.7854H5.76499C5.95867 2.54636 6.73256 3.00624 7.49355 2.81257C7.99821 2.68412 8.39227 2.29006 8.52072 1.7854H9.64285C9.8401 1.7854 10 1.6255 10 1.42825C10 1.231 9.8401 1.0711 9.64285 1.0711ZM7.14287 2.14253C6.74838 2.14253 6.42859 1.82273 6.42859 1.42825C6.42859 1.03377 6.74838 0.71397 7.14287 0.71397C7.53735 0.71397 7.85714 1.03377 7.85714 1.42825C7.85714 1.82273 7.53735 2.14253 7.14287 2.14253Z" fill="#4E4E50"/>
<path d="M9.64285 8.21429H7.80642C7.61275 7.45332 6.83885 6.99345 6.07786 7.18712C5.5732 7.31556 5.17914 7.70963 5.05069 8.21429H0.35715C0.159898 8.21429 0 8.37419 0 8.57142C0 8.76865 0.159898 8.92857 0.35715 8.92857H5.05071C5.24439 9.68953 6.01829 10.1494 6.77927 9.95574C7.28393 9.82729 7.67799 9.43323 7.80644 8.92857H9.64285C9.8401 8.92857 10 8.76867 10 8.57142C10 8.37417 9.8401 8.21429 9.64285 8.21429ZM6.42857 9.28572C6.03409 9.28572 5.71429 8.96592 5.71429 8.57144C5.71429 8.17696 6.03409 7.85716 6.42857 7.85716C6.82305 7.85716 7.14285 8.17696 7.14285 8.57144C7.14285 8.96592 6.82307 9.28572 6.42857 9.28572Z" fill="#4E4E50"/>
</g>
<defs>
<clipPath id="clip0">
<rect width="10" height="10" fill="white"/>
</clipPath>
</defs>
</svg>
