<svg width="41" height="40" viewBox="0 0 41 40" fill="none" xmlns="http://www.w3.org/2000/svg">
<circle cx="20.5" cy="20" r="19.5" stroke="#B12020"/>
<circle cx="20.5" cy="20" r="14" fill="#B12020"/>
<path d="M20.5 1L20.949 2.38197H22.4021L21.2265 3.23607L21.6756 4.61803L20.5 3.76393L19.3244 4.61803L19.7735 3.23607L18.5979 2.38197H20.051L20.5 1Z" fill="#B12020"/>
<path d="M8.5 6L8.94903 7.38197H10.4021L9.22654 8.23607L9.67557 9.61803L8.5 8.76393L7.32443 9.61803L7.77346 8.23607L6.59789 7.38197H8.05097L8.5 6Z" fill="#B12020"/>
<path d="M13.5 3L13.949 4.38197H15.4021L14.2265 5.23607L14.6756 6.61803L13.5 5.76393L12.3244 6.61803L12.7735 5.23607L11.5979 4.38197H13.051L13.5 3Z" fill="#B12020"/>
<path d="M5.5 12L5.94903 13.382H7.40211L6.22654 14.2361L6.67557 15.618L5.5 14.7639L4.32443 15.618L4.77346 14.2361L3.59789 13.382H5.05097L5.5 12Z" fill="#B12020"/>
<path d="M5.5 24L5.94903 25.382H7.40211L6.22654 26.2361L6.67557 27.618L5.5 26.7639L4.32443 27.618L4.77346 26.2361L3.59789 25.382H5.05097L5.5 24Z" fill="#B12020"/>
<path d="M3.5 18L3.94903 19.382H5.40211L4.22654 20.2361L4.67557 21.618L3.5 20.7639L2.32443 21.618L2.77346 20.2361L1.59789 19.382H3.05097L3.5 18Z" fill="#B12020"/>
<path d="M8.5 29L8.94903 30.382H10.4021L9.22654 31.2361L9.67557 32.618L8.5 31.7639L7.32443 32.618L7.77346 31.2361L6.59789 30.382H8.05097L8.5 29Z" fill="#B12020"/>
<path d="M13.5 33L13.949 34.382H15.4021L14.2265 35.2361L14.6756 36.618L13.5 35.7639L12.3244 36.618L12.7735 35.2361L11.5979 34.382H13.051L13.5 33Z" fill="#B12020"/>
<path d="M20.5 35L20.949 36.382H22.4021L21.2265 37.2361L21.6756 38.618L20.5 37.7639L19.3244 38.618L19.7735 37.2361L18.5979 36.382H20.051L20.5 35Z" fill="#B12020"/>
<path d="M32.5 6L32.051 7.38197H30.5979L31.7735 8.23607L31.3244 9.61803L32.5 8.76393L33.6756 9.61803L33.2265 8.23607L34.4021 7.38197H32.949L32.5 6Z" fill="#B12020"/>
<path d="M27.5 3L27.051 4.38197H25.5979L26.7735 5.23607L26.3244 6.61803L27.5 5.76393L28.6756 6.61803L28.2265 5.23607L29.4021 4.38197H27.949L27.5 3Z" fill="#B12020"/>
<path d="M35.5 12L35.051 13.382H33.5979L34.7735 14.2361L34.3244 15.618L35.5 14.7639L36.6756 15.618L36.2265 14.2361L37.4021 13.382H35.949L35.5 12Z" fill="#B12020"/>
<path d="M35.5 24L35.051 25.382H33.5979L34.7735 26.2361L34.3244 27.618L35.5 26.7639L36.6756 27.618L36.2265 26.2361L37.4021 25.382H35.949L35.5 24Z" fill="#B12020"/>
<path d="M37.5 18L37.051 19.382H35.5979L36.7735 20.2361L36.3244 21.618L37.5 20.7639L38.6756 21.618L38.2265 20.2361L39.4021 19.382H37.949L37.5 18Z" fill="#B12020"/>
<path d="M32.5 29L32.051 30.382H30.5979L31.7735 31.2361L31.3244 32.618L32.5 31.7639L33.6756 32.618L33.2265 31.2361L34.4021 30.382H32.949L32.5 29Z" fill="#B12020"/>
<path d="M27.5 33L27.051 34.382H25.5979L26.7735 35.2361L26.3244 36.618L27.5 35.7639L28.6756 36.618L28.2265 35.2361L29.4021 34.382H27.949L27.5 33Z" fill="#B12020"/>
</svg>