<svg width="6" height="10" viewBox="0 0 6 10" fill="none" xmlns="http://www.w3.org/2000/svg">
<path d="M0.693209 2.70844C0.846119 2.86063 1.09344 2.86004 1.24563 2.70713L2.60938 1.33678L2.60938 9.60937C2.60938 9.82512 2.78426 10 3 10C3.21575 10 3.39063 9.82512 3.39063 9.60937L3.39063 1.33676L4.75438 2.70715C4.90656 2.86006 5.15389 2.86065 5.3068 2.70846C5.45973 2.55625 5.46029 2.30893 5.30813 2.15602L3.27688 0.114923C3.27676 0.114787 3.27663 0.114689 3.27651 0.114572C3.12432 -0.0379479 2.8762 -0.0384362 2.7235 0.114552C2.72338 0.114689 2.72325 0.114787 2.72313 0.114904L0.691881 2.156C0.539733 2.30889 0.54026 2.55623 0.693209 2.70844Z" fill="black"/>
</svg>
