<svg width="52" height="52" viewBox="0 0 52 52" fill="none" xmlns="http://www.w3.org/2000/svg">
<circle cx="26" cy="26" r="26" fill="#B12020"/>
<path d="M34.7919 23.2897L26.853 15.3507C26.6265 15.1243 26.3244 15 25.9958 15C25.6737 15 25.3718 15.1243 25.1454 15.3507L17.2062 23.2897C16.7372 23.7589 16.7372 24.5224 17.2062 24.9912L17.927 25.7124C18.1535 25.9387 18.4556 26.0631 18.7779 26.0631C19.1 26.0631 19.4125 25.9387 19.6387 25.7124L24.2806 21.0806V35.7957C24.2806 36.4589 24.8 37 25.4632 37H26.4827C27.1459 37 27.7179 36.4589 27.7179 35.7957V21.0284L32.386 25.7124C32.6123 25.9387 32.9064 26.0631 33.2287 26.0631C33.551 26.0631 33.8486 25.9387 34.0752 25.7124L34.7939 24.9912C35.263 24.5222 35.2612 23.7589 34.7919 23.2897Z" fill="white"/>
</svg>
