<svg width="50" height="50" viewBox="0 0 50 50" fill="none" xmlns="http://www.w3.org/2000/svg">
<path d="M49.0282 39.758L43.4852 36.0623L38.5576 32.7779C37.6066 32.1452 36.3286 32.3526 35.6266 33.2538L32.5775 37.1736C31.9225 38.0241 30.7443 38.2686 29.8051 37.7486C27.7362 36.5977 25.2896 35.5141 19.8914 30.109C14.4932 24.7039 13.4027 22.2643 12.2519 20.1953C11.7318 19.2561 11.9763 18.0779 12.8269 17.423L16.7466 14.3739C17.6477 13.672 17.8552 12.394 17.2225 11.4429L14.0389 6.66709L10.2424 0.972236C9.59623 0.0029117 8.30269 -0.288101 7.30368 0.311013L2.92521 2.93774C1.74192 3.6349 0.87211 4.76067 0.495943 6.08165C-0.701407 10.4471 -0.94281 20.0772 14.4906 35.5106C29.924 50.944 39.5532 50.7018 43.9187 49.5044C45.2397 49.1283 46.3654 48.2585 47.0626 47.0751L49.6893 42.6967C50.2885 41.6976 49.9975 40.4042 49.0282 39.758Z" fill="#B12020"/>
</svg>
