<svg width="16" height="12" viewBox="0 0 16 12" fill="none" xmlns="http://www.w3.org/2000/svg">
<path d="M11.2969 2.37963H1.58403L2.94431 1.01369C3.127 0.830257 3.12638 0.533444 2.94294 0.350756C2.75947 0.168038 2.46269 0.168694 2.28003 0.352131L0.136625 2.50448C0.0438438 2.59766 -0.00140625 2.72007 0.00034375 2.84197C0.00028125 2.84413 0 2.84622 0 2.84838C0 3.01091 0.0827813 3.15404 0.208406 3.23813L2.28003 5.31838C2.46275 5.50182 2.7595 5.50241 2.94294 5.31976C3.12638 5.13707 3.127 4.84026 2.94431 4.65682L1.61019 3.31713H11.2969C13.3733 3.31713 15.0625 5.00638 15.0625 7.08276C15.0625 9.15913 13.3733 10.8484 11.2969 10.8484H4.46875C4.20988 10.8484 4 11.0583 4 11.3171C4 11.576 4.20988 11.7859 4.46875 11.7859H11.2969C13.8902 11.7859 16 9.67607 16 7.08276C16 4.48944 13.8902 2.37963 11.2969 2.37963Z" fill="#B12020"/>
</svg>
