<svg width="40" height="40" viewBox="0 0 40 40" fill="none" xmlns="http://www.w3.org/2000/svg">
    <g clip-path="url(#clip0)">
        <path d="M39.6216 36.5617L35.2282 12.395C34.9766 11.0067 33.7699 10 32.3599 10H7.6399C6.22991 10 5.02324 11.0067 4.76991 12.395L0.376572 36.5617C0.221572 37.415 0.449905 38.2867 1.00657 38.9517C1.56157 39.6183 2.3799 40 3.24657 40H36.7532C37.6216 40 38.4382 39.6183 38.9932 38.9517C39.5482 38.2867 39.7782 37.415 39.6216 36.5617ZM17.9916 31.38C17.7466 31.64 17.4149 31.77 17.0832 31.77C16.7749 31.77 16.4649 31.6567 16.2232 31.4283L12.4999 27.905V30.4167C12.4999 31.1067 11.9399 31.6667 11.2499 31.6667C10.5599 31.6667 9.9999 31.1067 9.9999 30.4167V24.995V19.5833C9.9999 18.8933 10.5599 18.3333 11.2499 18.3333C11.9399 18.3333 12.4999 18.8933 12.4999 19.5833V22.1333L16.2332 18.6667C16.7399 18.1967 17.5299 18.2267 17.9999 18.7333C18.4699 19.2383 18.4399 20.03 17.9332 20.5L13.0766 25.01L17.9416 29.6133C18.4432 30.0883 18.4666 30.8783 17.9916 31.38ZM29.9999 22.9167C29.9999 23.6067 29.4399 24.1667 28.7499 24.1667C28.0599 24.1667 27.4999 23.6067 27.4999 22.9167V22.5C27.4999 21.5817 26.7516 20.8333 25.8332 20.8333C24.9149 20.8333 24.1666 21.5817 24.1666 22.5V27.5C24.1666 28.4183 24.9149 29.1667 25.8332 29.1667C26.7516 29.1667 27.4999 28.4183 27.4999 27.5H26.2499C25.5599 27.5 24.9999 26.94 24.9999 26.25C24.9999 25.56 25.5599 25 26.2499 25H28.7499C29.4399 25 29.9999 25.56 29.9999 26.25V27.5C29.9999 29.7967 28.1299 31.6667 25.8332 31.6667C23.5366 31.6667 21.6666 29.7967 21.6666 27.5V22.5C21.6666 20.2033 23.5366 18.3333 25.8332 18.3333C28.1299 18.3333 29.9999 20.2033 29.9999 22.5V22.9167Z" fill="#B12020"/>
        <path d="M20 12.5C16.5533 12.5 13.75 9.69666 13.75 6.24999C13.75 2.80333 16.5533 -7.62939e-06 20 -7.62939e-06C23.4467 -7.62939e-06 26.25 2.80333 26.25 6.24999C26.25 9.69666 23.4467 12.5 20 12.5ZM20 3.33333C18.3917 3.33333 17.0833 4.64166 17.0833 6.24999C17.0833 7.85833 18.3917 9.16666 20 9.16666C21.6083 9.16666 22.9167 7.85833 22.9167 6.24999C22.9167 4.64166 21.6083 3.33333 20 3.33333Z" fill="#B12020"/>
    </g>
    <defs>
        <clipPath id="clip0">
            <rect width="40" height="40" fill="white"/>
        </clipPath>
    </defs>
</svg>
