<svg width="41" height="44" viewBox="0 0 41 44" fill="none" xmlns="http://www.w3.org/2000/svg">
<path d="M17.3749 35.9315L16.5564 36.7525C16.4599 36.8496 16.3327 36.9102 16.1966 36.9238C16.0604 36.9374 15.9237 36.9033 15.81 36.8271L14.27 35.8071C14.1031 35.6981 13.9125 35.6308 13.7142 35.6109C13.5159 35.591 13.3158 35.619 13.1306 35.6926C12.9428 35.7694 12.7766 35.8909 12.6465 36.0465C12.5164 36.2022 12.4263 36.3874 12.3842 36.5858L12.0259 38.3498C11.9995 38.4842 11.9272 38.6052 11.8215 38.6923C11.7158 38.7794 11.5832 38.8272 11.4463 38.8275H10.2869C10.1506 38.8281 10.0182 38.7817 9.91214 38.696C9.80608 38.6103 9.73283 38.4907 9.70476 38.3573L9.33656 36.546C9.29758 36.3507 9.21147 36.168 9.08572 36.0136C8.95998 35.8592 8.7984 35.7379 8.61507 35.6603C8.42723 35.5821 8.22308 35.5512 8.02052 35.5703C7.81796 35.5894 7.62318 35.6579 7.45324 35.7698L5.96051 36.7649C5.84604 36.8394 5.70952 36.8723 5.57371 36.8583C5.43789 36.8442 5.31099 36.7841 5.21415 36.6878L4.39067 35.8693C4.29435 35.7723 4.23454 35.645 4.22139 35.509C4.20824 35.3729 4.24256 35.2365 4.31852 35.1229L5.33855 33.5828C5.4475 33.4159 5.51477 33.2253 5.53469 33.027C5.5546 32.8287 5.52658 32.6285 5.45299 32.4433C5.37603 32.2552 5.25416 32.0888 5.09802 31.9587C4.94189 31.8286 4.75625 31.7387 4.55735 31.6969L2.79345 31.3387C2.66024 31.3111 2.54065 31.2383 2.45495 31.1327C2.36925 31.027 2.32272 30.895 2.32325 30.759V29.5996C2.32293 29.4641 2.36964 29.3328 2.4554 29.228C2.54116 29.1231 2.66065 29.0513 2.79345 29.0248L4.60711 28.6541C4.80191 28.6148 4.98417 28.5285 5.13807 28.4028C5.29198 28.277 5.41289 28.1156 5.49031 27.9326C5.56803 27.7451 5.5987 27.5414 5.57961 27.3393C5.56053 27.1372 5.49229 26.9429 5.38084 26.7732L4.38569 25.2804C4.30816 25.1672 4.27313 25.0302 4.28679 24.8936C4.30044 24.757 4.36191 24.6297 4.46033 24.534L5.27884 23.7105C5.3758 23.6142 5.5031 23.5544 5.63914 23.5412C5.77518 23.5281 5.91158 23.5624 6.0252 23.6383L7.55773 24.6311C7.72358 24.7424 7.91435 24.8111 8.11311 24.8311C8.31187 24.851 8.51249 24.8216 8.69717 24.7455C8.88528 24.6685 9.05166 24.5467 9.18178 24.3905C9.31189 24.2344 9.40176 24.0487 9.44353 23.8498L9.80179 22.0883C9.82839 21.9544 9.90082 21.834 10.0066 21.7477C10.1124 21.6614 10.245 21.6147 10.3815 21.6156H11.5358C11.6726 21.6146 11.8055 21.6613 11.9117 21.7475C12.018 21.8337 12.0909 21.9542 12.118 22.0883L12.4862 23.8996C12.5255 24.0938 12.6118 24.2754 12.7376 24.4286C12.8634 24.5817 13.0248 24.7016 13.2077 24.7778C13.3949 24.8571 13.5987 24.8892 13.8013 24.8714C14.0038 24.8537 14.1989 24.7865 14.3695 24.6758L15.0238 24.2404L14.8348 24.5937L14.7377 24.7729L13.3694 27.3007L13.1878 27.6987C13.1193 27.8238 13.0658 27.9566 13.0286 28.0943C12.5553 27.6294 11.9408 27.3354 11.2819 27.2586C10.623 27.1819 9.95727 27.3267 9.38986 27.6704C8.82244 28.0141 8.38564 28.5369 8.14841 29.1564C7.91117 29.7759 7.88701 30.4568 8.07974 31.0916C8.27247 31.7264 8.67111 32.2789 9.21274 32.6619C9.75436 33.0449 10.4081 33.2366 11.0708 33.2067C11.7335 33.1768 12.3674 32.9271 12.8723 32.4969C13.3773 32.0668 13.7246 31.4806 13.8595 30.8311L14.0536 30.9381L14.1456 30.9829C14.173 30.9978 14.2003 31.0152 14.2327 31.0301L14.4939 31.172L14.5536 31.2043L14.586 31.2217C14.6133 31.2366 14.6407 31.2541 14.673 31.269L15.1109 31.5178C15.1233 31.5402 15.1283 31.5626 15.1383 31.5825C15.1656 31.6546 15.198 31.7193 15.2303 31.789L15.2627 31.8487C15.3174 31.9582 15.3821 32.0975 15.4368 32.2169C15.381 32.5528 15.4347 32.8978 15.5902 33.2007C15.7457 33.5036 15.9946 33.7484 16.3001 33.8988L16.7604 34.1476L17.4595 35.205C17.5292 35.3179 17.5588 35.4511 17.5434 35.5829C17.5281 35.7148 17.4687 35.8376 17.3749 35.9315Z" fill="#B12020"/>
<path d="M19.1092 22.4118C19.0072 22.4367 18.8928 22.459 18.7734 22.4765L18.4126 22.2749C18.3817 22.2577 18.3493 22.2436 18.3156 22.2326H18.2982L18.2335 22.2053C17.3603 21.7997 16.2855 22.0858 15.6884 22.3098C15.6176 22.3261 15.5491 22.3511 15.4844 22.3844C15.4284 22.4012 15.3748 22.4255 15.3252 22.4566L15.273 22.4839C15.2587 22.492 15.2437 22.4987 15.2282 22.5038C15.195 22.5154 15.164 22.5322 15.1361 22.5536L14.2181 23.1383L10.8545 15.4852C11.3459 15.1207 11.8668 14.7978 12.4119 14.5199C12.9541 14.2402 13.5203 14.0095 14.1037 13.8307L19.1092 22.4118Z" fill="#B12020"/>
<path d="M14.028 2.59601L1.81738 8.8045L2.01019 9.18375L14.2208 2.97525L14.028 2.59601Z" fill="#B12020"/>
<path d="M13.6678 1.88291L1.45605 8.08926L1.6488 8.46854L13.8605 2.26218L13.6678 1.88291Z" fill="#B12020"/>
<path d="M12.7094 0.000352125L0.500977 6.2131L1.28741 7.75863L13.4959 1.54588L12.7094 0.000352125Z" fill="#B12020"/>
<path d="M14.3916 3.30902L2.18359 9.52898L6.83094 18.6599L7.78379 18.1623C7.71413 16.7541 9.39096 14.8284 11.9137 13.5421C14.4364 12.2558 16.9839 12.0493 18.0786 12.9251L19.034 12.4275L14.3916 3.30902ZM11.2718 12.2832C10.9314 12.4561 10.5475 12.5242 10.1684 12.479C9.78935 12.4337 9.43222 12.2771 9.14216 12.0288C8.8521 11.7806 8.64214 11.452 8.53881 11.0845C8.43548 10.717 8.44343 10.3271 8.56164 9.96405C8.67986 9.60105 8.90303 9.28124 9.20296 9.04505C9.50289 8.80887 9.86611 8.66691 10.2467 8.63712C10.6273 8.60733 11.0082 8.69105 11.3412 8.8777C11.6742 9.06434 11.9444 9.34553 12.1177 9.68573C12.2331 9.91173 12.3028 10.1583 12.3228 10.4113C12.3428 10.6643 12.3126 10.9188 12.234 11.1601C12.1554 11.4014 12.03 11.6248 11.8649 11.8176C11.6997 12.0103 11.4982 12.1685 11.2718 12.2832Z" fill="#B12020"/>
<path d="M9.73444 9.26027C9.47657 9.39081 9.26322 9.59493 9.12142 9.8468C8.97963 10.0987 8.91575 10.3869 8.93788 10.6751C8.96002 10.9633 9.06717 11.2385 9.24576 11.4657C9.42436 11.693 9.66637 11.8621 9.94116 11.9518C10.2159 12.0414 10.5111 12.0475 10.7894 11.9692C11.0676 11.8909 11.3164 11.7319 11.5041 11.5121C11.6919 11.2924 11.8103 11.0219 11.8442 10.7349C11.8782 10.4478 11.8262 10.1572 11.6949 9.89968C11.5188 9.55582 11.2138 9.2956 10.8465 9.1758C10.4792 9.05601 10.0794 9.08637 9.73444 9.26027ZM10.9112 11.5766C10.7108 11.6787 10.4846 11.7191 10.2612 11.6927C10.0378 11.6662 9.82727 11.5741 9.65626 11.4279C9.48526 11.2818 9.36144 11.0882 9.3005 10.8716C9.23955 10.6551 9.24421 10.4253 9.31388 10.2114C9.38355 9.99751 9.5151 9.80908 9.69189 9.66998C9.86868 9.53087 10.0828 9.44734 10.307 9.42995C10.5313 9.41256 10.7557 9.46209 10.9518 9.57228C11.1479 9.68247 11.307 9.84836 11.4088 10.049C11.4766 10.1819 11.5176 10.3269 11.5293 10.4757C11.541 10.6245 11.5232 10.7741 11.477 10.916C11.4307 11.0579 11.357 11.1893 11.2599 11.3027C11.1628 11.416 11.0443 11.5091 10.9112 11.5766Z" fill="#B12020"/>
<path d="M14.6927 29.116L14.4797 29.5071C14.458 29.5469 14.4727 29.5967 14.5125 29.6184L14.7769 29.7625C14.8167 29.7841 14.8666 29.7695 14.8882 29.7296L15.1013 29.3385C15.123 29.2987 15.1083 29.2489 15.0685 29.2272L14.8041 29.0832C14.7643 29.0615 14.7144 29.0762 14.6927 29.116Z" fill="#B12020"/>
<path d="M15.13 29.3547L14.9172 29.7459C14.8955 29.7857 14.9102 29.8356 14.95 29.8572L15.2145 30.0011C15.2543 30.0228 15.3042 30.0081 15.3258 29.9682L15.5387 29.577C15.5603 29.5372 15.5456 29.4873 15.5058 29.4657L15.2414 29.3218C15.2015 29.3001 15.1517 29.3148 15.13 29.3547Z" fill="#B12020"/>
<path d="M15.8622 29.6593L15.6806 29.5597C15.6611 29.5499 15.6385 29.5481 15.6176 29.5546C15.5968 29.5611 15.5792 29.5754 15.5687 29.5946L15.3572 29.9827C15.3464 30.0022 15.3438 30.0251 15.3499 30.0466C15.3559 30.068 15.3702 30.0862 15.3895 30.0971L15.5712 30.1942L15.8622 29.6593Z" fill="#B12020"/>
<path d="M22.2512 33.7375L22.4629 33.3486C22.4736 33.3289 22.4917 33.3142 22.5132 33.3079C22.5347 33.3015 22.5579 33.304 22.5776 33.3147L22.8376 33.4562C22.8573 33.467 22.872 33.4851 22.8783 33.5066C22.8847 33.5281 22.8822 33.5513 22.8715 33.571L22.6598 33.9599C22.6494 33.9791 22.6318 33.9933 22.6109 33.9994C22.59 34.0056 22.5675 34.0032 22.5484 33.9928L22.2862 33.8501C22.2671 33.8397 22.2529 33.8221 22.2467 33.8012C22.2406 33.7803 22.2429 33.7578 22.2533 33.7387L22.2512 33.7375Z" fill="#B12020"/>
<path d="M22.901 33.5864L22.6878 33.9774C22.666 34.0172 22.6807 34.067 22.7205 34.0888L22.9848 34.2329C23.0246 34.2546 23.0745 34.24 23.0962 34.2001L23.3094 33.8092C23.3311 33.7694 23.3165 33.7195 23.2767 33.6978L23.0124 33.5536C22.9726 33.5319 22.9227 33.5466 22.901 33.5864Z" fill="#B12020"/>
<path d="M23.6368 33.8913L23.4527 33.7918C23.4433 33.7865 23.4329 33.7832 23.4221 33.782C23.4113 33.7807 23.4004 33.7817 23.39 33.7847C23.3796 33.7877 23.3699 33.7927 23.3615 33.7995C23.353 33.8063 23.346 33.8146 23.3408 33.8241L23.1393 34.2148C23.134 34.2242 23.1307 34.2346 23.1294 34.2454C23.1282 34.2562 23.1291 34.2671 23.1321 34.2775C23.1351 34.2879 23.1402 34.2976 23.1469 34.306C23.1537 34.3145 23.1621 34.3215 23.1716 34.3267L23.3532 34.4262L23.6368 33.8913Z" fill="#B12020"/>
<path d="M17.4844 23.9867L17.7655 23.4692C17.7712 23.4589 17.7789 23.4498 17.7881 23.4425C17.7973 23.4352 17.8079 23.4297 17.8192 23.4265C17.8306 23.4232 17.8424 23.4223 17.8541 23.4236C17.8658 23.425 17.8771 23.4286 17.8874 23.4343L18.9224 23.9966C18.9433 24.0087 18.9588 24.0283 18.9658 24.0514C18.9727 24.0745 18.9705 24.0994 18.9597 24.121L18.6786 24.6311L17.4844 23.9867Z" fill="#B12020"/>
<path d="M25.2988 28.2436L25.58 27.7261C25.5915 27.7047 25.6111 27.6888 25.6345 27.6818C25.6578 27.6748 25.6829 27.6773 25.7044 27.6888L26.7393 28.2511C26.7603 28.2631 26.7757 28.2829 26.7822 28.3062C26.7887 28.3294 26.7858 28.3543 26.7741 28.3755L26.493 28.893L25.2988 28.2436Z" fill="#B12020"/>
<path d="M26.6695 28.7287C26.7495 28.8092 26.8025 28.9125 26.8212 29.0243C26.84 29.1362 26.8235 29.2511 26.774 29.3532L25.4828 31.7292L24.632 31.2665C24.5142 31.1954 24.4236 31.0871 24.3744 30.9586C24.3253 30.8301 24.3205 30.6889 24.3608 30.5574C24.6239 29.626 24.5596 28.6325 24.1787 27.7428C23.7978 26.8531 23.1232 26.1209 22.2677 25.6685C21.4121 25.2161 20.4272 25.0708 19.4775 25.2569C18.5277 25.443 17.6705 25.9492 17.0489 26.6911C16.9783 26.7748 16.8819 26.8329 16.7749 26.8563C16.6678 26.8797 16.556 26.8671 16.4568 26.8205L15.5264 26.3229L16.8225 23.9468C16.8812 23.8501 16.9686 23.7741 17.0725 23.7295C17.1764 23.6849 17.2917 23.6739 17.4022 23.698C20.0593 24.3051 21.1937 22.7028 21.1937 22.7028L26.687 13.863C27.2652 14.0619 27.8247 14.3117 28.3588 14.6094C28.8957 14.8965 29.4068 15.2295 29.8864 15.6046L25.4455 25.0042C25.4455 25.0042 24.7191 26.8254 26.6695 28.7287Z" fill="#B12020"/>
<path d="M27.0755 2.62202L26.8721 2.9957L38.9034 9.54482L39.1068 9.17115L27.0755 2.62202Z" fill="#B12020"/>
<path d="M27.4633 1.92031L27.2598 2.29391L39.2889 8.84724L39.4924 8.47363L27.4633 1.92031Z" fill="#B12020"/>
<path d="M28.4687 0.0650267L27.6396 1.58813L39.671 8.13726L40.5 6.61415L28.4687 0.0650267Z" fill="#B12020"/>
<path d="M26.6969 3.32892L21.8008 12.323L22.7387 12.838C23.8607 11.9871 26.3984 12.2732 28.8887 13.6242C31.3791 14.9752 32.9937 16.9556 32.8867 18.3514L33.8371 18.8738L38.7258 9.87729L26.6969 3.32892ZM32.1702 11.6164C31.9867 11.9517 31.7078 12.2251 31.3689 12.4019C31.03 12.5788 30.6463 12.6511 30.2663 12.6099C29.8863 12.5687 29.527 12.4158 29.2339 12.1704C28.9407 11.9251 28.7269 11.5983 28.6195 11.2314C28.512 10.8646 28.5158 10.4741 28.6302 10.1093C28.7446 9.7446 28.9646 9.42197 29.2624 9.18224C29.5601 8.94252 29.9223 8.79645 30.303 8.76251C30.6838 8.72857 31.066 8.80829 31.4015 8.99157C31.6252 9.11251 31.8229 9.27641 31.9832 9.47389C32.1435 9.67136 32.2632 9.89853 32.3355 10.1424C32.4079 10.3862 32.4314 10.6419 32.4047 10.8949C32.3781 11.1478 32.3018 11.393 32.1802 11.6164H32.1702Z" fill="#B12020"/>
<path d="M31.1828 9.40709C30.9291 9.27007 30.6406 9.21119 30.3536 9.23787C30.0665 9.26455 29.7938 9.37559 29.5697 9.55701C29.3457 9.73843 29.1803 9.98211 29.0945 10.2573C29.0087 10.5326 29.0063 10.827 29.0875 11.1037C29.1688 11.3803 29.3301 11.6267 29.5511 11.8117C29.7721 11.9968 30.043 12.1124 30.3296 12.1438C30.6161 12.1752 30.9056 12.1211 31.1615 11.9883C31.4173 11.8555 31.6282 11.6499 31.7674 11.3975C31.8609 11.2287 31.92 11.043 31.9412 10.8512C31.9624 10.6594 31.9453 10.4653 31.8909 10.2801C31.8365 10.095 31.7459 9.92248 31.6244 9.77262C31.5028 9.62275 31.3527 9.4985 31.1828 9.40709ZM29.9388 11.6886C29.741 11.5814 29.5795 11.4179 29.4746 11.2188C29.3698 11.0197 29.3264 10.794 29.3499 10.5702C29.3734 10.3464 29.4627 10.1347 29.6066 9.96171C29.7505 9.78876 29.9425 9.66238 30.1583 9.59859C30.374 9.5348 30.6039 9.53647 30.8187 9.60337C31.0335 9.67027 31.2236 9.79941 31.365 9.97443C31.5064 10.1495 31.5927 10.3625 31.613 10.5866C31.6332 10.8107 31.5865 11.0357 31.4788 11.2333C31.4081 11.3645 31.3123 11.4805 31.1967 11.5746C31.0812 11.6688 30.9482 11.7393 30.8055 11.782C30.6627 11.8247 30.5129 11.8389 30.3646 11.8238C30.2163 11.8086 30.0725 11.7643 29.9413 11.6935L29.9388 11.6886Z" fill="#B12020"/>
<path d="M16.0814 27.5246L15.146 27.027L14.4319 28.3157C14.4001 28.3735 14.3801 28.4369 14.373 28.5025C14.3659 28.568 14.3719 28.6343 14.3907 28.6975C14.4094 28.7607 14.4405 28.8195 14.4822 28.8706C14.5239 28.9217 14.5753 28.9639 14.6335 28.995L16.1088 29.7986C16.05 29.2236 16.1101 28.6426 16.2854 28.0918C16.3181 27.988 16.3159 27.8763 16.2791 27.7738C16.2422 27.6713 16.1728 27.5838 16.0814 27.5246Z" fill="#B12020"/>
<path d="M22.2363 33.13L23.7116 33.9336C23.7694 33.9654 23.8328 33.9854 23.8984 33.9925C23.9639 33.9996 24.0302 33.9936 24.0934 33.9749C24.1566 33.9561 24.2154 33.925 24.2665 33.8833C24.3175 33.8416 24.3598 33.7902 24.3908 33.7321L25.0974 32.4333L24.2515 31.9756C24.1275 31.9142 23.9866 31.8964 23.8512 31.9248C23.7159 31.9532 23.594 32.0263 23.5051 32.1323C23.1506 32.5437 22.7198 32.8825 22.2363 33.13Z" fill="#B12020"/>
<path d="M25.2344 32.1796L25.0975 32.4284L24.2517 31.9681C24.127 31.9082 23.9859 31.8916 23.8507 31.9209C23.7156 31.9502 23.594 32.0237 23.5053 32.1298C22.8254 32.9152 21.8789 33.4212 20.8482 33.5504C20.3009 33.6226 19.7859 33.6823 19.7038 33.8341C19.6765 33.8813 19.6491 33.9261 19.6292 33.9684C19.6093 34.0107 19.4376 34.0406 19.2908 33.9684L17.0095 32.7244C16.8627 32.6423 16.7806 32.5179 16.8179 32.4483C16.8552 32.3786 16.895 32.3114 16.895 32.3114C16.9721 32.1597 16.7433 31.6994 16.5044 31.1943C16.0426 30.2247 15.9653 29.1161 16.288 28.0918C16.3194 27.9875 16.3157 27.8758 16.2775 27.7737C16.2393 27.6717 16.1687 27.585 16.0765 27.527L15.1436 27.0294L15.2779 26.7806L17.1687 27.7957C16.724 28.6143 16.6226 29.576 16.8869 30.4693C17.1512 31.3625 17.7595 32.1142 18.5781 32.559C19.3966 33.0037 20.3582 33.1051 21.2515 32.8408C22.1447 32.5764 22.8964 31.9681 23.3411 31.1495L25.2344 32.1796Z" fill="#B12020"/>
<path d="M25.4828 31.7293L25.3459 31.9781L23.4551 30.948C23.4606 30.9267 23.4699 30.9064 23.4825 30.8883C23.8821 30.0713 23.9491 29.131 23.6692 28.2656C23.3893 27.4001 22.7845 26.6771 21.9821 26.2488C21.1798 25.8205 20.2425 25.7204 19.3677 25.9695C18.493 26.2186 17.7491 26.7975 17.2927 27.5843L15.3994 26.5543L15.5313 26.3055L16.4617 26.803C16.5609 26.8497 16.6727 26.8623 16.7798 26.8389C16.8868 26.8155 16.9832 26.7574 17.0538 26.6737C17.6754 25.9318 18.5326 25.4256 19.4824 25.2395C20.4321 25.0534 21.417 25.1987 22.2726 25.6511C23.1281 26.1035 23.8027 26.8357 24.1836 27.7254C24.5645 28.6151 24.6288 29.6086 24.3657 30.54C24.3206 30.6733 24.3224 30.818 24.3708 30.9502C24.4192 31.0823 24.5113 31.1939 24.6319 31.2665L25.4828 31.7293Z" fill="#B12020"/>
<path d="M22.4201 29.3109C22.4201 29.7258 22.2971 30.1313 22.0667 30.4762C21.8362 30.8211 21.5087 31.0899 21.1255 31.2487C20.7422 31.4074 20.3205 31.4489 19.9137 31.368C19.5069 31.2871 19.1332 31.0873 18.8399 30.794C18.5466 30.5007 18.3468 30.127 18.2659 29.7201C18.185 29.3133 18.2265 28.8916 18.3852 28.5083C18.544 28.1251 18.8128 27.7975 19.1577 27.567C19.5026 27.3366 19.9081 27.2136 20.3229 27.2136C20.5984 27.2132 20.8712 27.2673 21.1258 27.3725C21.3804 27.4778 21.6118 27.6323 21.8066 27.8271C22.0014 28.022 22.1559 28.2533 22.2612 28.5079C22.3664 28.7625 22.4205 29.0354 22.4201 29.3109Z" fill="#B12020"/>
</svg>
