<svg width="6" height="10" viewBox="0 0 6 10" fill="none" xmlns="http://www.w3.org/2000/svg">
<path d="M5.30679 7.29156C5.15388 7.13937 4.90656 7.13996 4.75437 7.29287L3.39062 8.66322L3.39062 0.390625C3.39062 0.174883 3.21574 0 3 0C2.78425 0 2.60937 0.174883 2.60937 0.390625L2.60937 8.66324L1.24562 7.29285C1.09344 7.13994 0.846112 7.13935 0.693202 7.29154C0.540272 7.44375 0.539706 7.69107 0.691874 7.84398L2.72312 9.88508C2.72324 9.88521 2.72338 9.88531 2.72349 9.88543C2.87568 10.0379 3.12381 10.0384 3.2765 9.88545C3.27662 9.88531 3.27675 9.88521 3.27687 9.8851L5.30812 7.844C5.46027 7.69111 5.45974 7.44377 5.30679 7.29156Z" fill="black"/>
</svg>
